<svg width="219" height="47" viewBox="0 0 219 47" fill="none" xmlns="http://www.w3.org/2000/svg">
<path d="M76.6313 14.904V29.016H82.2713V33H71.9273V14.904H76.6313ZM88.3967 26.784C88.3967 27.2 88.4687 27.584 88.6127 27.936C88.7727 28.272 88.9727 28.568 89.2127 28.824C89.4687 29.08 89.7647 29.28 90.1007 29.424C90.4527 29.568 90.8207 29.64 91.2047 29.64C91.5887 29.64 91.9487 29.568 92.2847 29.424C92.6367 29.28 92.9327 29.08 93.1727 28.824C93.4287 28.568 93.6287 28.272 93.7727 27.936C93.9327 27.584 94.0127 27.208 94.0127 26.808C94.0127 26.424 93.9327 26.064 93.7727 25.728C93.6287 25.376 93.4287 25.072 93.1727 24.816C92.9327 24.56 92.6367 24.36 92.2847 24.216C91.9487 24.072 91.5887 24 91.2047 24C90.8207 24 90.4527 24.072 90.1007 24.216C89.7647 24.36 89.4687 24.56 89.2127 24.816C88.9727 25.072 88.7727 25.368 88.6127 25.704C88.4687 26.04 88.3967 26.4 88.3967 26.784ZM83.8127 26.736C83.8127 25.824 83.9967 24.976 84.3647 24.192C84.7327 23.392 85.2447 22.704 85.9007 22.128C86.5567 21.536 87.3327 21.072 88.2287 20.736C89.1407 20.4 90.1327 20.232 91.2047 20.232C92.2607 20.232 93.2367 20.4 94.1327 20.736C95.0447 21.056 95.8287 21.512 96.4847 22.104C97.1567 22.68 97.6767 23.376 98.0447 24.192C98.4127 24.992 98.5967 25.88 98.5967 26.856C98.5967 27.832 98.4047 28.728 98.0207 29.544C97.6527 30.344 97.1407 31.04 96.4847 31.632C95.8287 32.208 95.0367 32.656 94.1087 32.976C93.1967 33.296 92.2047 33.456 91.1327 33.456C90.0767 33.456 89.1007 33.296 88.2047 32.976C87.3087 32.656 86.5327 32.2 85.8767 31.608C85.2367 31.016 84.7327 30.312 84.3647 29.496C83.9967 28.664 83.8127 27.744 83.8127 26.736ZM104.858 31.32L98.9062 20.688H103.946L107.234 27L110.426 20.688H115.418L105.53 39.144H100.658L104.858 31.32ZM120.317 26.808C120.317 27.208 120.389 27.584 120.533 27.936C120.677 28.272 120.869 28.568 121.109 28.824C121.365 29.08 121.661 29.28 121.997 29.424C122.349 29.568 122.725 29.64 123.125 29.64C123.509 29.64 123.869 29.568 124.205 29.424C124.557 29.28 124.853 29.08 125.093 28.824C125.349 28.568 125.549 28.272 125.693 27.936C125.853 27.6 125.933 27.24 125.933 26.856C125.933 26.472 125.853 26.112 125.693 25.776C125.549 25.424 125.349 25.12 125.093 24.864C124.853 24.608 124.557 24.408 124.205 24.264C123.869 24.12 123.509 24.048 123.125 24.048C122.725 24.048 122.349 24.12 121.997 24.264C121.661 24.408 121.365 24.608 121.109 24.864C120.869 25.12 120.677 25.416 120.533 25.752C120.389 26.072 120.317 26.424 120.317 26.808ZM125.789 20.688H130.157V33H125.789V31.632C124.861 32.8 123.605 33.384 122.021 33.384C121.125 33.384 120.301 33.224 119.549 32.904C118.797 32.568 118.141 32.104 117.581 31.512C117.021 30.92 116.581 30.224 116.261 29.424C115.957 28.624 115.805 27.752 115.805 26.808C115.805 25.928 115.957 25.096 116.261 24.312C116.565 23.512 116.989 22.816 117.533 22.224C118.077 21.632 118.725 21.168 119.477 20.832C120.229 20.48 121.061 20.304 121.973 20.304C123.509 20.304 124.781 20.84 125.789 21.912V20.688ZM137.457 13.08V33H133.113V13.08H137.457ZM145.273 24.312V33H140.93V24.312H139.49V20.688H140.93V16.992H145.273V20.688H147.746V24.312H145.273ZM153.843 31.32L147.891 20.688H152.931L156.219 27L159.411 20.688H164.403L154.515 39.144H149.643L153.843 31.32ZM179.17 14.904V29.016H184.81V33H174.466V14.904H179.17ZM190.864 26.808C190.864 27.208 190.936 27.584 191.08 27.936C191.224 28.272 191.416 28.568 191.656 28.824C191.912 29.08 192.208 29.28 192.544 29.424C192.896 29.568 193.272 29.64 193.672 29.64C194.056 29.64 194.416 29.568 194.752 29.424C195.104 29.28 195.4 29.08 195.64 28.824C195.896 28.568 196.096 28.272 196.24 27.936C196.4 27.6 196.48 27.24 196.48 26.856C196.48 26.472 196.4 26.112 196.24 25.776C196.096 25.424 195.896 25.12 195.64 24.864C195.4 24.608 195.104 24.408 194.752 24.264C194.416 24.12 194.056 24.048 193.672 24.048C193.272 24.048 192.896 24.12 192.544 24.264C192.208 24.408 191.912 24.608 191.656 24.864C191.416 25.12 191.224 25.416 191.08 25.752C190.936 26.072 190.864 26.424 190.864 26.808ZM196.336 20.688H200.704V33H196.336V31.632C195.408 32.8 194.152 33.384 192.568 33.384C191.672 33.384 190.848 33.224 190.096 32.904C189.344 32.568 188.688 32.104 188.128 31.512C187.568 30.92 187.128 30.224 186.808 29.424C186.504 28.624 186.352 27.752 186.352 26.808C186.352 25.928 186.504 25.096 186.808 24.312C187.112 23.512 187.536 22.816 188.08 22.224C188.624 21.632 189.272 21.168 190.024 20.832C190.776 20.48 191.608 20.304 192.52 20.304C194.056 20.304 195.328 20.84 196.336 21.912V20.688ZM213.476 26.88C213.476 26.496 213.404 26.136 213.26 25.8C213.116 25.448 212.916 25.144 212.66 24.888C212.404 24.632 212.108 24.432 211.772 24.288C211.436 24.128 211.068 24.048 210.668 24.048C210.284 24.048 209.924 24.12 209.588 24.264C209.252 24.408 208.956 24.608 208.7 24.864C208.46 25.12 208.26 25.424 208.1 25.776C207.956 26.112 207.884 26.472 207.884 26.856C207.884 27.24 207.956 27.6 208.1 27.936C208.244 28.272 208.444 28.568 208.7 28.824C208.956 29.064 209.252 29.264 209.588 29.424C209.94 29.568 210.308 29.64 210.692 29.64C211.076 29.64 211.436 29.568 211.772 29.424C212.108 29.28 212.396 29.08 212.636 28.824C212.892 28.568 213.092 28.272 213.236 27.936C213.396 27.6 213.476 27.248 213.476 26.88ZM208.004 13.08V21.912C209.028 20.84 210.308 20.304 211.844 20.304C212.756 20.304 213.588 20.48 214.34 20.832C215.108 21.168 215.756 21.632 216.284 22.224C216.828 22.8 217.252 23.488 217.556 24.288C217.86 25.072 218.012 25.912 218.012 26.808C218.012 27.72 217.852 28.576 217.532 29.376C217.228 30.176 216.796 30.872 216.236 31.464C215.676 32.056 215.012 32.528 214.244 32.88C213.492 33.216 212.676 33.384 211.796 33.384C210.196 33.384 208.932 32.8 208.004 31.632V33H203.66V13.08H208.004Z" fill="#0ACDF1"/>
<path fill-rule="evenodd" clip-rule="evenodd" d="M28.1995 0H13.4717V22.4783L10.8605 27.2745H16.1007V29.291H9.83777L7.48439 33.9963H16.1007V36.0129H6.36941L0.953087 47H28.1995V22.4783V0Z" fill="#0AD4FA"/>
<path fill-rule="evenodd" clip-rule="evenodd" d="M42.5038 0H28.1995V22.4783H42.5038V0Z" fill="#F4D94B"/>
<path d="M55.4458 47L42.5038 22.4783H28.1995V47H55.4458Z" fill="#F4C54B"/>
<g style="mix-blend-mode:multiply">
<path d="M0.791426 47L13.3752 22.4783H28.1995V47H0.791426Z" fill="#F7F7F7"/>
</g>
</svg>
