<svg width="24" height="24" viewBox="0 0 24 24" fill="none" xmlns="http://www.w3.org/2000/svg">
<path fill-rule="evenodd" clip-rule="evenodd" d="M12 24C18.6274 24 24 18.6274 24 12C24 5.37258 18.6274 0 12 0C5.37258 0 0 5.37258 0 12C0 18.6274 5.37258 24 12 24Z" fill="url(#paint0_radial)"/>
<path fill-rule="evenodd" clip-rule="evenodd" d="M2.85718 12C2.85718 6.96607 6.96539 2.85714 12 2.85714C17.034 2.85714 21.1429 6.96536 21.1429 12C21.1429 17.0339 17.0347 21.1429 12 21.1429C6.96611 21.1429 2.85718 17.0346 2.85718 12ZM3.92861 12C3.92861 16.4506 7.54943 20.0714 12 20.0714C16.4506 20.0714 20.0715 16.4506 20.0715 12C20.0715 7.54939 16.4506 3.92857 12 3.92857C7.54943 3.92857 3.92861 7.54939 3.92861 12Z" fill="#F8B013"/>
<path fill-rule="evenodd" clip-rule="evenodd" d="M4.88892 12C4.88892 8.09498 8.09389 4.88889 12 4.88889C15.905 4.88889 19.1111 8.09386 19.1111 12C19.1111 15.905 15.9062 19.1111 12 19.1111C8.09501 19.1111 4.88892 15.9061 4.88892 12ZM5.97735 12C5.97735 15.3209 8.6791 18.0227 12 18.0227C15.321 18.0227 18.0227 15.3209 18.0227 12C18.0227 8.67908 15.321 5.97732 12 5.97732C8.6791 5.97732 5.97735 8.67908 5.97735 12Z" fill="#F8B013"/>
<defs>
<radialGradient id="paint0_radial" cx="0" cy="0" r="1" gradientUnits="userSpaceOnUse" gradientTransform="translate(12 12) rotate(-90) scale(16.4708)">
<stop stop-color="#FFCF00"/>
<stop offset="1" stop-color="#F7AE15"/>
</radialGradient>
</defs>
</svg>
